<?xml version="1.0" encoding="UTF-8" standalone="no"?>
<!-- Created with Inkscape (http://www.inkscape.org/) -->

<svg
   width="360"
   height="360"
   viewBox="0 0 95.25 95.249999"
   version="1.1"
   id="svg1"
   inkscape:version="1.4.3 (0d15f75042, 2025-12-25)"
   sodipodi:docname="dssh_alt_text.svg"
   xmlns:inkscape="http://www.inkscape.org/namespaces/inkscape"
   xmlns:sodipodi="http://sodipodi.sourceforge.net/DTD/sodipodi-0.dtd"
   xmlns:xlink="http://www.w3.org/1999/xlink"
   xmlns="http://www.w3.org/2000/svg"
   xmlns:svg="http://www.w3.org/2000/svg">
  <sodipodi:namedview
     id="namedview1"
     pagecolor="#ffffff"
     bordercolor="#999999"
     borderopacity="1"
     inkscape:showpageshadow="2"
     inkscape:pageopacity="0"
     inkscape:pagecheckerboard="true"
     inkscape:deskcolor="#d1d1d1"
     inkscape:document-units="mm"
     inkscape:zoom="1.1413858"
     inkscape:cx="-14.018047"
     inkscape:cy="310.58735"
     inkscape:window-width="2560"
     inkscape:window-height="1380"
     inkscape:window-x="3840"
     inkscape:window-y="1089"
     inkscape:window-maximized="1"
     inkscape:current-layer="layer1" />
  <defs
     id="defs1">
    <rect
       x="112.70226"
       y="247.21786"
       width="453.14615"
       height="405.6691"
       id="rect21" />
    <rect
       x="121.85245"
       y="253.98781"
       width="314.23102"
       height="261.91296"
       id="rect20" />
    <linearGradient
       id="swatch20"
       inkscape:swatch="solid">
      <stop
         style="stop-color:#7b2fbe;stop-opacity:1;"
         offset="0"
         id="stop20" />
    </linearGradient>
    <linearGradient
       id="swatch6"
       inkscape:swatch="solid">
      <stop
         style="stop-color:#000000;stop-opacity:1;"
         offset="0"
         id="stop7" />
    </linearGradient>
    <linearGradient
       inkscape:collect="always"
       xlink:href="#swatch20"
       id="linearGradient20"
       x1="12.062827"
       y1="199.42946"
       x2="388.58954"
       y2="199.42946"
       gradientUnits="userSpaceOnUse"
       gradientTransform="matrix(0.95113207,0,0,0.95723365,-7.9445084,-7.4638913)" />
  </defs>
  <g
     inkscape:label="Ebene 1"
     inkscape:groupmode="layer"
     id="layer1">
    <rect
       style="fill:#1f2022;fill-opacity:1;stroke:url(#linearGradient20);stroke-width:7.06886;stroke-linecap:round;stroke-linejoin:round;stroke-miterlimit:6.7;stroke-dasharray:none;paint-order:markers stroke fill"
       id="rect1"
       width="88.079002"
       height="88.065491"
       x="3.6548615"
       y="3.5231967"
       transform="matrix(0.99999894,0.00145369,-0.00143521,0.99999897,0,0)"
       ry="7.5621457" />
    <path
       d="m 20.655866,76.825506 q -2.027529,0 -3.518359,-1.013765 -1.461014,-1.013764 -2.266062,-2.862393 -0.805048,-1.84863 -0.805048,-4.383041 0,-2.504594 0.805048,-4.353223 0.805048,-1.84863 2.266062,-2.862394 1.49083,-1.043581 3.518359,-1.043581 1.967895,0 3.399092,1.192664 1.461013,1.192664 2.087162,3.041293 V 55.29792 h 0.894498 v 21.169787 h -0.655965 l -0.08945,-3.995425 q -0.655965,1.818813 -2.116979,3.100927 -1.461013,1.252297 -3.518358,1.252297 z m 0,-0.894498 q 1.639913,0 2.862393,-0.924315 1.252297,-0.954131 1.938079,-2.594044 0.685782,-1.66973 0.685782,-3.846342 0,-2.146795 -0.685782,-3.786708 -0.685782,-1.66973 -1.938079,-2.623861 -1.22248,-0.954131 -2.862393,-0.954131 -2.594045,0 -4.114691,1.997712 -1.520647,1.997712 -1.520647,5.366988 0,3.399093 1.520647,5.396805 1.520646,1.967896 4.114691,1.967896 z m 18.933553,0.894498 q -2.027529,0 -3.488542,-0.655965 Q 34.66968,75.513575 33.864632,74.380544 33.0894,73.247514 32.99995,71.846133 l 0.924315,-0.119266 q 0.08945,1.878446 1.58028,3.041293 1.49083,1.162848 4.084874,1.162848 2.504595,0 3.727075,-0.834865 1.252298,-0.834865 1.252298,-2.444961 0,-0.864682 -0.3578,-1.49083 -0.357799,-0.655966 -1.550463,-1.133031 -1.162847,-0.506882 -3.577992,-0.894498 -2.295878,-0.387616 -3.488542,-0.924315 -1.192664,-0.566515 -1.639913,-1.371564 -0.417433,-0.834864 -0.417433,-1.997712 0,-1.371563 0.685782,-2.385328 0.685782,-1.013764 1.908263,-1.58028 1.252297,-0.566515 2.951843,-0.566515 1.788996,0 3.041293,0.655965 1.252298,0.626149 1.967896,1.699546 0.745415,1.043581 0.983948,2.325695 l -0.924315,0.1789 q -0.149083,-1.043581 -0.745415,-1.938079 -0.596332,-0.924315 -1.669729,-1.461014 -1.073398,-0.566515 -2.653678,-0.566515 -2.146795,0 -3.369276,0.954131 -1.22248,0.924315 -1.22248,2.683494 0,1.043581 0.387615,1.699546 0.417433,0.655966 1.49083,1.073398 1.103215,0.417433 3.130743,0.715599 2.325695,0.327982 3.637626,0.894498 1.31193,0.566515 1.848629,1.40138 0.536699,0.805048 0.536699,1.967895 0,1.371564 -0.685782,2.325695 -0.685782,0.924315 -1.997712,1.431197 -1.311931,0.477066 -3.25001,0.477066 z m 17.889973,0 q -2.027529,0 -3.488542,-0.655965 -1.431197,-0.655966 -2.236245,-1.788997 -0.775232,-1.13303 -0.864682,-2.534411 l 0.924315,-0.119266 q 0.08945,1.878446 1.58028,3.041293 1.49083,1.162848 4.084874,1.162848 2.504594,0 3.727075,-0.834865 1.252297,-0.834865 1.252297,-2.444961 0,-0.864682 -0.357799,-1.49083 -0.357799,-0.655966 -1.550463,-1.133031 -1.162848,-0.506882 -3.577992,-0.894498 -2.295879,-0.387616 -3.488543,-0.924315 -1.192664,-0.566515 -1.639913,-1.371564 -0.417432,-0.834864 -0.417432,-1.997712 0,-1.371563 0.685782,-2.385328 0.685782,-1.013764 1.908262,-1.58028 1.252297,-0.566515 2.951844,-0.566515 1.788996,0 3.041293,0.655965 1.252297,0.626149 1.967896,1.699546 0.745415,1.043581 0.983947,2.325695 l -0.924314,0.1789 q -0.149083,-1.043581 -0.745415,-1.938079 -0.596332,-0.924315 -1.66973,-1.461014 -1.073397,-0.566515 -2.653677,-0.566515 -2.146796,0 -3.369276,0.954131 -1.222481,0.924315 -1.222481,2.683494 0,1.043581 0.387616,1.699546 0.417432,0.655966 1.49083,1.073398 1.103214,0.417433 3.130743,0.715599 2.325695,0.327982 3.637625,0.894498 1.311931,0.566515 1.84863,1.40138 0.536698,0.805048 0.536698,1.967895 0,1.371564 -0.685781,2.325695 -0.685782,0.924315 -1.997713,1.431197 -1.31193,0.477066 -3.250009,0.477066 z M 69.674394,76.467707 V 55.29792 h 0.894498 v 9.690395 h -0.119267 q 0.119267,-1.550463 0.894499,-2.594044 0.775231,-1.043581 1.997712,-1.550463 1.22248,-0.536699 2.653677,-0.536699 1.788996,0 2.922027,0.805048 1.162848,0.805048 1.699546,2.176612 0.566516,1.341747 0.566516,3.011477 v 10.167461 h -0.894498 v -9.451863 q 0,-2.564228 -1.043581,-4.174324 -1.013765,-1.639913 -3.488543,-1.639913 -2.444961,0 -3.816524,1.639913 -1.371564,1.610096 -1.371564,4.174324 v 9.451863 z"
       id="dssh"
       style="font-size:29.8166px;font-family:'Geist Mono';-inkscape-font-specification:'Geist Mono, @wght=100';font-variation-settings:'wght' 100;fill:#ffffff;stroke-width:0.670873;stroke-linecap:round;stroke-linejoin:round;stroke-miterlimit:0;paint-order:stroke fill markers"
       aria-label="dssh" />
    <path
       id="iyah"
       style="font-size:133.333px;font-family:'Geist Mono';-inkscape-font-specification:'Geist Mono, @wght=100';font-variation-settings:'wght' 100;text-align:center;white-space:pre;fill:#d946ef;fill-opacity:1;stroke:#e336ff;stroke-width:0.9525;stroke-linecap:round;stroke-miterlimit:0;stroke-opacity:1;paint-order:stroke fill markers;stroke-dasharray:none;stroke-linejoin:round"
       d="m 14.570115,18.185456 v 1.367786 l 16.601372,8.163141 -16.601372,8.163141 v 1.367198 l 17.854292,-8.766334 v -1.52801 z m 66.10977,0 -17.854292,8.766922 v 1.52801 l 17.854292,8.766334 V 35.879524 L 64.078516,27.716383 80.679885,19.553242 Z M 39.582618,39.458039 v 1.206386 h 16.084767 v -1.206386 z" />
  </g>
</svg>
